<?xml version="1.0" encoding="UTF-8"?>
<svg viewBox="0 0 722 493" width="100%" style="max-width:722px;height:auto;display:block" xmlns="http://www.w3.org/2000/svg" font-family="Pretendard,-apple-system,sans-serif"><text x="1" y="22" font-size="12.5" font-weight="700" fill="#111111">W-08 거래 S1 · 정보 확인 · 문화센터·카드 공통</text>
<rect x="1" y="34" width="720" height="378" fill="none" stroke="#D8D8D8" stroke-width="1"/>
<text x="-5" y="51" font-size="9" fill="#767676" text-anchor="end">스텝</text>
<rect x="2.0" y="38" width="232.7" height="40" fill="#111111" stroke="#111111" stroke-width="1.4"/>
<text x="118.3" y="62.0" font-size="11" fill="#FFFFFF" text-anchor="middle">① 정보 확인</text>
<rect x="244.7" y="38" width="232.7" height="40" fill="#F4F4F4" stroke="#D8D8D8" stroke-width="1"/>
<text x="361.0" y="62.0" font-size="11" fill="#111111" text-anchor="middle">② 결제·입력</text>
<rect x="487.3" y="38" width="232.7" height="40" fill="#F4F4F4" stroke="#D8D8D8" stroke-width="1"/>
<text x="603.7" y="62.0" font-size="11" fill="#111111" text-anchor="middle">③ 완료</text>
<text x="-5" y="101" font-size="9" fill="#767676" text-anchor="end">대상</text>
<rect x="2.0" y="88" width="718.0" height="130" fill="#F4F4F4" stroke="#D8D8D8" stroke-width="1"/>
<text x="361.0" y="157.0" font-size="11" fill="#111111" text-anchor="middle">신청 대상 요약 (강좌 / 카드)</text>
<text x="-5" y="241" font-size="9" fill="#767676" text-anchor="end">입력</text>
<rect x="2.0" y="228" width="718.0" height="110" fill="#F4F4F4" stroke="#D8D8D8" stroke-width="1"/>
<text x="361.0" y="287.0" font-size="11" fill="#111111" text-anchor="middle">신청자 정보 · 옵션 선택</text>
<text x="-5" y="361" font-size="9" fill="#767676" text-anchor="end">행동</text>
<rect x="2.0" y="348" width="354.0" height="56" fill="#F4F4F4" stroke="#D8D8D8" stroke-width="1"/>
<text x="179.0" y="380.0" font-size="11" fill="#111111" text-anchor="middle">이전 / 취소</text>
<text x="351.0" y="359" font-size="8" fill="#767676" text-anchor="end">이동</text>
<rect x="366.0" y="348" width="354.0" height="56" fill="#111111" stroke="#111111" stroke-width="1.4"/>
<text x="543.0" y="380.0" font-size="11" fill="#FFFFFF" text-anchor="middle">다음</text>
<text x="1" y="425" font-size="10.5" fill="#767676">· 선정축 ①분기(B4 로그인 상태 · B6 자격 충족) ②원형</text>
<text x="1" y="444" font-size="10.5" fill="#767676">· 122(현시스템기초분석) H3·H5 "S1 중간에 나의회원추가L이 끼어듦" → 로그인 분기를 이 화면 앞으로 이동</text>
<text x="1" y="463" font-size="10.5" fill="#767676">· 취소 경로 신설 — AS-IS 카드신청 64화면 중 취소·이전 0건(241(분석종합) I-9)</text></svg>